PathFileType	4	(X/Y/Z)	./resultDataOpenSim/trcMotMarkerGrf/sub06/qtm-12-06.trc
DataRate	CameraRate	NumFrames	NumMarkers	Units	OrigDataRate	OrigDataStartFrame	OrigNumFrames
250.000000	250.000000	7	24	m	250.000000	135	538
Frame#	Time	L.Toe.Tip			R.Toe.Tip			L.Ankle.Lat			R.Ankle.Lat			L.Ankle.Med			R.Ankle.Med			L.Heel			R.Heel			L.Knee.Lat			R.Knee.Lat			L.Knee.Med			R.Knee.Med			L.Thigh.Upper			R.Thigh.Upper			L.ASIS			R.ASIS			V.Sacral			L.Acromium			R.Acromium			C7			L.Elbow			R.Elbow			L.Wrist.Lat			R.Wrist.Lat
		X1	Y1	Z1	X2	Y2	Z2	X3	Y3	Z3	X4	Y4	Z4	X5	Y5	Z5	X6	Y6	Z6	X7	Y7	Z7	X8	Y8	Z8	X9	Y9	Z9	X10	Y10	Z10	X11	Y11	Z11	X12	Y12	Z12	X13	Y13	Z13	X14	Y14	Z14	X15	Y15	Z15	X16	Y16	Z16	X17	Y17	Z17	X18	Y18	Z18	X19	Y19	Z19	X20	Y20	Z20	X21	Y21	Z21	X22	Y22	Z22	X23	Y23	Z23	X24	Y24	Z24

135	0.536	-0.1921423	0.097944651	-0.058916852	-0.74679959	0.035529327	0.10001253	-0.32007728	0.093568314	-0.074843227	-0.87786455	0.075815977	0.11395014	-0.31826473	0.11124595	0.0099899608	-0.84957385	0.092427896	0.029568946	-0.37626559	0.043277746	-0.019576708	-0.93217634	0.059408553	0.048543041	-0.39300685	0.45862574	-0.083725514	-0.71950451	0.4326269	0.15062025	-0.40939202	0.45187601	0.039315125	-0.74370232	0.43284507	0.019612425	-0.58121387	0.80465029	-0.13549607	-0.643358	0.787626	0.20849183	-0.52114353	0.84775224	-0.081286596	-0.53147732	0.8397217	0.16700666	-0.70646741	0.91945188	0.037061866	-0.59783185	1.3295395	-0.14497084	-0.56648752	1.318116	0.21362848	-0.66172157	1.3575586	0.041954141	-0.69504723	1.0250801	-0.18442167	-0.54242876	1.0037306	0.30407845	-0.57608105	0.81626486	-0.23459502	-0.30702751	0.92672157	0.26937678
136	0.54	-0.17499697	0.10158898	-0.058231382	-0.7467448	0.035497925	0.09997716	-0.30294431	0.095012398	-0.075293698	-0.87744076	0.076463785	0.1139487	-0.30222071	0.1125468	0.0094957338	-0.84904643	0.092840972	0.029557954	-0.35826767	0.043276335	-0.021081408	-0.93192055	0.060417158	0.048561983	-0.3859462	0.45698102	-0.083235698	-0.71597561	0.43198322	0.15060144	-0.4026993	0.44965661	0.040001945	-0.73982427	0.43218405	0.019473042	-0.57414051	0.80260735	-0.13561021	-0.6350751	0.78609041	0.20884837	-0.51400609	0.84574387	-0.081407712	-0.52542075	0.83779349	0.16740639	-0.69969758	0.91765381	0.036764394	-0.59157683	1.3276414	-0.14519227	-0.56028981	1.3165564	0.21343316	-0.65562484	1.3559828	0.041789718	-0.68932461	1.0235486	-0.18385712	-0.53409684	1.0023287	0.30389685	-0.57275186	0.81390403	-0.23562227	-0.29809587	0.92806027	0.26780293
137	0.544	-0.15845798	0.10536396	-0.057570217	-0.74669172	0.035468827	0.099948319	-0.28635259	0.096598354	-0.075632824	-0.87699287	0.077157635	0.11401972	-0.28668928	0.11397584	0.0091034446	-0.84850748	0.093297015	0.029604282	-0.34072285	0.043433595	-0.022683489	-0.931688	0.061519432	0.048697403	-0.37881453	0.45532444	-0.082782941	-0.71234881	0.43134166	0.15063183	-0.3959435	0.44744746	0.040684135	-0.73589269	0.43151166	0.019375322	-0.56700982	0.8005382	-0.13572789	-0.62650097	0.78462071	0.20955946	-0.50677034	0.84372828	-0.081524652	-0.51922441	0.83584351	0.16772259	-0.69329397	0.91597246	0.036070758	-0.58529272	1.3257311	-0.14542667	-0.55406653	1.3149723	0.21323014	-0.6495715	1.354422	0.041609293	-0.68354758	1.0219584	-0.18332205	-0.52581409	1.0009299	0.30369233	-0.56916081	0.81154447	-0.23656465	-0.28928473	0.92932296	0.26626601
138	0.548	-0.14251155	0.10923852	-0.056853704	-0.74663816	0.035442196	0.099926853	-0.27032234	0.098283868	-0.075852442	-0.87651412	0.077898234	0.11416448	-0.2717397	0.11543858	0.0088240932	-0.8479428	0.093792303	0.029694729	-0.32375738	0.043750079	-0.024139376	-0.93146646	0.062713119	0.048941903	-0.37162911	0.45368636	-0.082375621	-0.7086421	0.4306925	0.15068697	-0.38913423	0.44528781	0.04134944	-0.73190323	0.43083289	0.01930722	-0.55971056	0.79847769	-0.1358674	-0.61869223	0.78325901	0.21041801	-0.49943981	0.84171201	-0.081633647	-0.51281326	0.83394924	0.16782639	-0.68748883	0.91454379	0.034597603	-0.57897647	1.3238089	-0.14567709	-0.5478303	1.3133535	0.21301743	-0.6434995	1.3528822	0.04139227	-0.67773193	1.0203427	-0.18285486	-0.51757712	0.99952965	0.30346517	-0.56534351	0.80920797	-0.23743162	-0.28060847	0.93048929	0.26479718
139	0.552	-0.12715211	0.11315626	-0.056020718	-0.74658342	0.035416735	0.099915376	-0.2548488	0.10002206	-0.07595616	-0.87599986	0.078680843	0.11438112	-0.25734887	0.11687017	0.0086799852	-0.84734581	0.094329875	0.029819262	-0.30745668	0.044187011	-0.025291125	-0.93122987	0.063987709	0.049277185	-0.3644052	0.45211465	-0.082017426	-0.70487334	0.43003357	0.15075507	-0.38229675	0.44321486	0.041980588	-0.72784569	0.43014802	0.019258191	-0.55217759	0.79644491	-0.13603969	-0.61200367	0.78204676	0.21135013	-0.49203792	0.83969958	-0.081731556	-0.50628239	0.83212121	0.16779177	-0.68196854	0.91332996	0.032612846	-0.57262852	1.3218823	-0.14594588	-0.54158442	1.3116996	0.21279749	-0.63739904	1.3513659	0.041134006	-0.67187346	1.0187306	-0.18247549	-0.50937749	0.99811767	0.30321063	-0.56138974	0.80691353	-0.23824158	-0.27201745	0.93154563	0.26336862
140	0.556	-0.11239712	0.11702306	-0.055071447	-0.74652806	0.035392472	0.09991595	-0.23994461	0.1017465	-0.075944164	-0.87544727	0.079511426	0.11466305	-0.24344055	0.11823459	0.0086818864	-0.84674521	0.094925879	0.029993334	-0.29183447	0.044679068	-0.026120969	-0.93094861	0.065333417	0.049674903	-0.35708998	0.45066598	-0.08169	-0.70103791	0.42937437	0.15084645	-0.37546106	0.44126071	0.04255885	-0.72370769	0.42945438	0.019230969	-0.54445292	0.79443998	-0.13623459	-0.60601235	0.78091498	0.21222238	-0.48459191	0.83770187	-0.081814612	-0.49974361	0.83033172	0.16774072	-0.67591586	0.91206929	0.031079598	-0.56625964	1.319964	-0.1462355	-0.53531749	1.3100339	0.21257234	-0.63125991	1.349848	0.040847313	-0.6659549	1.0171247	-0.18217999	-0.50122029	0.99669043	0.30293366	-0.55744332	0.80464164	-0.23902363	-0.2634579	0.93249789	0.26194377
141	0.56	-0.098263738	0.12072073	-0.054066329	-0.74647258	0.035372896	0.099927335	-0.22562932	0.10338674	-0.075821302	-0.87485992	0.080411166	0.11499988	-0.22996914	0.1195098	0.0088112338	-0.84620863	0.095603974	0.030258087	-0.27686251	0.045173194	-0.026657224	-0.93060387	0.066754586	0.050106142	-0.34953906	0.44939008	-0.081351503	-0.69711585	0.42872211	0.15097254	-0.3686373	0.4394504	0.043070754	-0.71947996	0.42875258	0.019233426	-0.53665263	0.79245498	-0.13642575	-0.60022531	0.77966837	0.21270181	-0.47710583	0.83573317	-0.081884562	-0.49322281	0.82856657	0.16771841	-0.66884544	0.91053457	0.030624962	-0.55988227	1.3180625	-0.14654896	-0.52902081	1.3083855	0.21234297	-0.62506318	1.3482957	0.040552513	-0.65996196	1.0155166	-0.18195058	-0.49311735	0.99525366	0.3026407	-0.55368301	0.80232826	-0.23982469	-0.25494286	0.93336576	0.26052306
